<mxfile host="65bd71144e">
    <diagram id="R2lEEEUBdFMjLlhIrx00" name="Page-1">
        <mxGraphModel dx="1099" dy="583" grid="0" gridSize="10" guides="1" tooltips="1" connect="1" arrows="1" fold="1" page="1" pageScale="1" pageWidth="850" pageHeight="1100" background="none" math="0" shadow="0" extFonts="Permanent Marker^https://fonts.googleapis.com/css?family=Permanent+Marker">
            <root>
                <mxCell id="0"/>
                <mxCell id="1" parent="0"/>
                <mxCell id="Siw3LnyoGnZJkl1sZXDq-53" value="WatchList" style="shape=table;startSize=30;container=1;collapsible=1;childLayout=tableLayout;fixedRows=1;rowLines=0;fontStyle=1;align=center;resizeLast=1;labelBackgroundColor=none;fontColor=#FFFFFF;fillColor=#000000;rounded=0;swimlaneFillColor=default;" parent="1" vertex="1">
                    <mxGeometry y="320" width="200" height="160" as="geometry"/>
                </mxCell>
                <mxCell id="Siw3LnyoGnZJkl1sZXDq-54" value="" style="shape=partialRectangle;collapsible=0;dropTarget=0;pointerEvents=0;fillColor=none;top=0;left=0;bottom=0;right=0;points=[[0,0.5],[1,0.5]];portConstraint=eastwest;labelBackgroundColor=none;fontColor=#FFFFFF;rounded=0;" parent="Siw3LnyoGnZJkl1sZXDq-53" vertex="1">
                    <mxGeometry y="30" width="200" height="30" as="geometry"/>
                </mxCell>
                <mxCell id="Siw3LnyoGnZJkl1sZXDq-55" value="PK" style="shape=partialRectangle;connectable=0;fillColor=none;top=0;left=0;bottom=0;right=0;fontStyle=1;overflow=hidden;labelBackgroundColor=none;fontColor=#FFFFFF;rounded=0;" parent="Siw3LnyoGnZJkl1sZXDq-54" vertex="1">
                    <mxGeometry width="59.75" height="30" as="geometry">
                        <mxRectangle width="59.75" height="30" as="alternateBounds"/>
                    </mxGeometry>
                </mxCell>
                <mxCell id="Siw3LnyoGnZJkl1sZXDq-56" value="ID" style="shape=partialRectangle;connectable=0;fillColor=none;top=0;left=0;bottom=0;right=0;align=left;spacingLeft=6;fontStyle=1;overflow=hidden;labelBackgroundColor=none;fontColor=#FFFFFF;strokeColor=default;rounded=0;" parent="Siw3LnyoGnZJkl1sZXDq-54" vertex="1">
                    <mxGeometry x="59.75" width="140.25" height="30" as="geometry">
                        <mxRectangle width="140.25" height="30" as="alternateBounds"/>
                    </mxGeometry>
                </mxCell>
                <mxCell id="Siw3LnyoGnZJkl1sZXDq-57" value="" style="shape=partialRectangle;collapsible=0;dropTarget=0;pointerEvents=0;fillColor=none;top=0;left=0;bottom=1;right=0;points=[[0,0.5],[1,0.5]];portConstraint=eastwest;labelBackgroundColor=none;fontColor=#FFFFFF;fontStyle=0;strokeColor=default;rounded=0;" parent="Siw3LnyoGnZJkl1sZXDq-53" vertex="1">
                    <mxGeometry y="60" width="200" height="30" as="geometry"/>
                </mxCell>
                <mxCell id="Siw3LnyoGnZJkl1sZXDq-58" value="PF" style="shape=partialRectangle;connectable=0;fillColor=none;top=0;left=0;bottom=0;right=0;fontStyle=1;overflow=hidden;labelBackgroundColor=none;fontColor=#FFFFFF;rounded=0;" parent="Siw3LnyoGnZJkl1sZXDq-57" vertex="1">
                    <mxGeometry width="59.75" height="30" as="geometry">
                        <mxRectangle width="59.75" height="30" as="alternateBounds"/>
                    </mxGeometry>
                </mxCell>
                <mxCell id="Siw3LnyoGnZJkl1sZXDq-59" value="User ID" style="shape=partialRectangle;connectable=0;fillColor=none;top=0;left=0;bottom=0;right=0;align=left;spacingLeft=6;fontStyle=1;overflow=hidden;labelBackgroundColor=none;fontColor=#FFFFFF;strokeColor=default;rounded=0;" parent="Siw3LnyoGnZJkl1sZXDq-57" vertex="1">
                    <mxGeometry x="59.75" width="140.25" height="30" as="geometry">
                        <mxRectangle width="140.25" height="30" as="alternateBounds"/>
                    </mxGeometry>
                </mxCell>
                <mxCell id="Siw3LnyoGnZJkl1sZXDq-60" value="" style="shape=partialRectangle;collapsible=0;dropTarget=0;pointerEvents=0;fillColor=none;top=0;left=0;bottom=0;right=0;points=[[0,0.5],[1,0.5]];portConstraint=eastwest;labelBackgroundColor=none;fontColor=#FFFFFF;rounded=0;" parent="Siw3LnyoGnZJkl1sZXDq-53" vertex="1">
                    <mxGeometry y="90" width="200" height="30" as="geometry"/>
                </mxCell>
                <mxCell id="Siw3LnyoGnZJkl1sZXDq-61" value="" style="shape=partialRectangle;connectable=0;fillColor=none;top=0;left=0;bottom=0;right=0;editable=1;overflow=hidden;labelBackgroundColor=none;fontColor=#FFFFFF;rounded=0;" parent="Siw3LnyoGnZJkl1sZXDq-60" vertex="1">
                    <mxGeometry width="59.75" height="30" as="geometry">
                        <mxRectangle width="59.75" height="30" as="alternateBounds"/>
                    </mxGeometry>
                </mxCell>
                <mxCell id="Siw3LnyoGnZJkl1sZXDq-62" value="TV Show Name" style="shape=partialRectangle;connectable=0;fillColor=none;top=0;left=0;bottom=0;right=0;align=left;spacingLeft=6;overflow=hidden;labelBackgroundColor=none;fontColor=#FFFFFF;rounded=0;" parent="Siw3LnyoGnZJkl1sZXDq-60" vertex="1">
                    <mxGeometry x="59.75" width="140.25" height="30" as="geometry">
                        <mxRectangle width="140.25" height="30" as="alternateBounds"/>
                    </mxGeometry>
                </mxCell>
                <mxCell id="Siw3LnyoGnZJkl1sZXDq-63" value="" style="shape=partialRectangle;collapsible=0;dropTarget=0;pointerEvents=0;fillColor=none;top=0;left=0;bottom=0;right=0;points=[[0,0.5],[1,0.5]];portConstraint=eastwest;labelBackgroundColor=none;fontColor=#FFFFFF;rounded=0;" parent="Siw3LnyoGnZJkl1sZXDq-53" vertex="1">
                    <mxGeometry y="120" width="200" height="30" as="geometry"/>
                </mxCell>
                <mxCell id="Siw3LnyoGnZJkl1sZXDq-64" value="" style="shape=partialRectangle;connectable=0;fillColor=none;top=0;left=0;bottom=0;right=0;editable=1;overflow=hidden;labelBackgroundColor=none;fontColor=#FFFFFF;rounded=0;" parent="Siw3LnyoGnZJkl1sZXDq-63" vertex="1">
                    <mxGeometry width="59.75" height="30" as="geometry">
                        <mxRectangle width="59.75" height="30" as="alternateBounds"/>
                    </mxGeometry>
                </mxCell>
                <mxCell id="Siw3LnyoGnZJkl1sZXDq-65" value="" style="shape=partialRectangle;connectable=0;fillColor=none;top=0;left=0;bottom=0;right=0;align=left;spacingLeft=6;overflow=hidden;labelBackgroundColor=none;fontColor=#FFFFFF;rounded=0;" parent="Siw3LnyoGnZJkl1sZXDq-63" vertex="1">
                    <mxGeometry x="59.75" width="140.25" height="30" as="geometry">
                        <mxRectangle width="140.25" height="30" as="alternateBounds"/>
                    </mxGeometry>
                </mxCell>
                <mxCell id="Siw3LnyoGnZJkl1sZXDq-95" value="User" style="shape=table;startSize=30;container=1;collapsible=1;childLayout=tableLayout;fixedRows=1;rowLines=0;fontStyle=1;align=center;resizeLast=1;labelBackgroundColor=none;fontColor=#FFFFFF;fillColor=#000000;rounded=0;swimlaneFillColor=default;" parent="1" vertex="1">
                    <mxGeometry x="320" y="120" width="160" height="200" as="geometry"/>
                </mxCell>
                <mxCell id="Siw3LnyoGnZJkl1sZXDq-96" value="" style="shape=partialRectangle;collapsible=0;dropTarget=0;pointerEvents=0;fillColor=none;top=0;left=0;bottom=1;right=0;points=[[0,0.5],[1,0.5]];portConstraint=eastwest;labelBackgroundColor=none;fontColor=#FFFFFF;rounded=0;" parent="Siw3LnyoGnZJkl1sZXDq-95" vertex="1">
                    <mxGeometry y="30" width="160" height="30" as="geometry"/>
                </mxCell>
                <mxCell id="Siw3LnyoGnZJkl1sZXDq-97" value="PK" style="shape=partialRectangle;connectable=0;fillColor=none;top=0;left=0;bottom=0;right=0;fontStyle=1;overflow=hidden;labelBackgroundColor=none;fontColor=#FFFFFF;rounded=0;" parent="Siw3LnyoGnZJkl1sZXDq-96" vertex="1">
                    <mxGeometry width="30" height="30" as="geometry">
                        <mxRectangle width="30" height="30" as="alternateBounds"/>
                    </mxGeometry>
                </mxCell>
                <mxCell id="Siw3LnyoGnZJkl1sZXDq-98" value="ID" style="shape=partialRectangle;connectable=0;fillColor=none;top=0;left=0;bottom=0;right=0;align=left;spacingLeft=6;fontStyle=1;overflow=hidden;labelBackgroundColor=none;fontColor=#FFFFFF;strokeColor=default;rounded=0;" parent="Siw3LnyoGnZJkl1sZXDq-96" vertex="1">
                    <mxGeometry x="30" width="130" height="30" as="geometry">
                        <mxRectangle width="130" height="30" as="alternateBounds"/>
                    </mxGeometry>
                </mxCell>
                <mxCell id="Siw3LnyoGnZJkl1sZXDq-99" value="" style="shape=partialRectangle;collapsible=0;dropTarget=0;pointerEvents=0;fillColor=none;top=0;left=0;bottom=0;right=0;points=[[0,0.5],[1,0.5]];portConstraint=eastwest;labelBackgroundColor=none;fontColor=#FFFFFF;rounded=0;" parent="Siw3LnyoGnZJkl1sZXDq-95" vertex="1">
                    <mxGeometry y="60" width="160" height="30" as="geometry"/>
                </mxCell>
                <mxCell id="Siw3LnyoGnZJkl1sZXDq-100" value="" style="shape=partialRectangle;connectable=0;fillColor=none;top=0;left=0;bottom=0;right=0;editable=1;overflow=hidden;labelBackgroundColor=none;fontColor=#FFFFFF;rounded=0;" parent="Siw3LnyoGnZJkl1sZXDq-99" vertex="1">
                    <mxGeometry width="30" height="30" as="geometry">
                        <mxRectangle width="30" height="30" as="alternateBounds"/>
                    </mxGeometry>
                </mxCell>
                <mxCell id="Siw3LnyoGnZJkl1sZXDq-101" value="Username" style="shape=partialRectangle;connectable=0;fillColor=none;top=0;left=0;bottom=0;right=0;align=left;spacingLeft=6;overflow=hidden;labelBackgroundColor=none;fontColor=#FFFFFF;rounded=0;" parent="Siw3LnyoGnZJkl1sZXDq-99" vertex="1">
                    <mxGeometry x="30" width="130" height="30" as="geometry">
                        <mxRectangle width="130" height="30" as="alternateBounds"/>
                    </mxGeometry>
                </mxCell>
                <mxCell id="Siw3LnyoGnZJkl1sZXDq-102" value="" style="shape=partialRectangle;collapsible=0;dropTarget=0;pointerEvents=0;fillColor=none;top=0;left=0;bottom=0;right=0;points=[[0,0.5],[1,0.5]];portConstraint=eastwest;labelBackgroundColor=none;fontColor=#FFFFFF;rounded=0;" parent="Siw3LnyoGnZJkl1sZXDq-95" vertex="1">
                    <mxGeometry y="90" width="160" height="30" as="geometry"/>
                </mxCell>
                <mxCell id="Siw3LnyoGnZJkl1sZXDq-103" value="" style="shape=partialRectangle;connectable=0;fillColor=none;top=0;left=0;bottom=0;right=0;editable=1;overflow=hidden;labelBackgroundColor=none;fontColor=#FFFFFF;rounded=0;" parent="Siw3LnyoGnZJkl1sZXDq-102" vertex="1">
                    <mxGeometry width="30" height="30" as="geometry">
                        <mxRectangle width="30" height="30" as="alternateBounds"/>
                    </mxGeometry>
                </mxCell>
                <mxCell id="Siw3LnyoGnZJkl1sZXDq-104" value="Email" style="shape=partialRectangle;connectable=0;fillColor=none;top=0;left=0;bottom=0;right=0;align=left;spacingLeft=6;overflow=hidden;labelBackgroundColor=none;fontColor=#FFFFFF;rounded=0;strokeColor=default;" parent="Siw3LnyoGnZJkl1sZXDq-102" vertex="1">
                    <mxGeometry x="30" width="130" height="30" as="geometry">
                        <mxRectangle width="130" height="30" as="alternateBounds"/>
                    </mxGeometry>
                </mxCell>
                <mxCell id="Cl-LHQ4kc-49kZ4zkS2B-1" value="" style="shape=partialRectangle;collapsible=0;dropTarget=0;pointerEvents=0;fillColor=none;top=0;left=0;bottom=0;right=0;points=[[0,0.5],[1,0.5]];portConstraint=eastwest;labelBackgroundColor=none;fontColor=#FFFFFF;rounded=0;" parent="Siw3LnyoGnZJkl1sZXDq-95" vertex="1">
                    <mxGeometry y="120" width="160" height="30" as="geometry"/>
                </mxCell>
                <mxCell id="Cl-LHQ4kc-49kZ4zkS2B-2" value="" style="shape=partialRectangle;connectable=0;fillColor=none;top=0;left=0;bottom=0;right=0;editable=1;overflow=hidden;labelBackgroundColor=none;fontColor=#FFFFFF;rounded=0;" parent="Cl-LHQ4kc-49kZ4zkS2B-1" vertex="1">
                    <mxGeometry width="30" height="30" as="geometry">
                        <mxRectangle width="30" height="30" as="alternateBounds"/>
                    </mxGeometry>
                </mxCell>
                <mxCell id="Cl-LHQ4kc-49kZ4zkS2B-3" value="Streaming Providers" style="shape=partialRectangle;connectable=0;fillColor=none;top=0;left=0;bottom=0;right=0;align=left;spacingLeft=6;overflow=hidden;labelBackgroundColor=none;fontColor=#FFFFFF;rounded=0;strokeColor=default;" parent="Cl-LHQ4kc-49kZ4zkS2B-1" vertex="1">
                    <mxGeometry x="30" width="130" height="30" as="geometry">
                        <mxRectangle width="130" height="30" as="alternateBounds"/>
                    </mxGeometry>
                </mxCell>
                <mxCell id="Siw3LnyoGnZJkl1sZXDq-110" value="Comments" style="shape=table;startSize=30;container=1;collapsible=1;childLayout=tableLayout;fixedRows=1;rowLines=0;fontStyle=1;align=center;resizeLast=1;labelBackgroundColor=none;fontColor=#FFFFFF;fillColor=#000000;rounded=0;swimlaneFillColor=default;" parent="1" vertex="1">
                    <mxGeometry x="640" width="210" height="240" as="geometry"/>
                </mxCell>
                <mxCell id="Siw3LnyoGnZJkl1sZXDq-111" value="" style="shape=partialRectangle;collapsible=0;dropTarget=0;pointerEvents=0;fillColor=none;top=0;left=0;bottom=1;right=0;points=[[0,0.5],[1,0.5]];portConstraint=eastwest;labelBackgroundColor=none;fontColor=#FFFFFF;rounded=0;" parent="Siw3LnyoGnZJkl1sZXDq-110" vertex="1">
                    <mxGeometry y="30" width="210" height="30" as="geometry"/>
                </mxCell>
                <mxCell id="Siw3LnyoGnZJkl1sZXDq-112" value="PK" style="shape=partialRectangle;connectable=0;fillColor=none;top=0;left=0;bottom=0;right=0;fontStyle=1;overflow=hidden;labelBackgroundColor=none;fontColor=#FFFFFF;rounded=0;" parent="Siw3LnyoGnZJkl1sZXDq-111" vertex="1">
                    <mxGeometry width="30" height="30" as="geometry">
                        <mxRectangle width="30" height="30" as="alternateBounds"/>
                    </mxGeometry>
                </mxCell>
                <mxCell id="Siw3LnyoGnZJkl1sZXDq-113" value="ID" style="shape=partialRectangle;connectable=0;fillColor=none;top=0;left=0;bottom=0;right=0;align=left;spacingLeft=6;fontStyle=1;overflow=hidden;labelBackgroundColor=none;fontColor=#FFFFFF;strokeColor=default;rounded=0;" parent="Siw3LnyoGnZJkl1sZXDq-111" vertex="1">
                    <mxGeometry x="30" width="180" height="30" as="geometry">
                        <mxRectangle width="180" height="30" as="alternateBounds"/>
                    </mxGeometry>
                </mxCell>
                <mxCell id="Siw3LnyoGnZJkl1sZXDq-130" value="" style="shape=partialRectangle;collapsible=0;dropTarget=0;pointerEvents=0;fillColor=none;top=0;left=0;bottom=0;right=0;points=[[0,0.5],[1,0.5]];portConstraint=eastwest;labelBackgroundColor=none;fontColor=#FFFFFF;rounded=0;" parent="Siw3LnyoGnZJkl1sZXDq-110" vertex="1">
                    <mxGeometry y="60" width="210" height="30" as="geometry"/>
                </mxCell>
                <mxCell id="Siw3LnyoGnZJkl1sZXDq-131" value="" style="shape=partialRectangle;connectable=0;fillColor=none;top=0;left=0;bottom=0;right=0;editable=1;overflow=hidden;labelBackgroundColor=none;fontColor=#FFFFFF;rounded=0;" parent="Siw3LnyoGnZJkl1sZXDq-130" vertex="1">
                    <mxGeometry width="30" height="30" as="geometry">
                        <mxRectangle width="30" height="30" as="alternateBounds"/>
                    </mxGeometry>
                </mxCell>
                <mxCell id="Siw3LnyoGnZJkl1sZXDq-132" value="Username" style="shape=partialRectangle;connectable=0;fillColor=none;top=0;left=0;bottom=0;right=0;align=left;spacingLeft=6;overflow=hidden;labelBackgroundColor=none;fontColor=#FFFFFF;rounded=0;" parent="Siw3LnyoGnZJkl1sZXDq-130" vertex="1">
                    <mxGeometry x="30" width="180" height="30" as="geometry">
                        <mxRectangle width="180" height="30" as="alternateBounds"/>
                    </mxGeometry>
                </mxCell>
                <mxCell id="Siw3LnyoGnZJkl1sZXDq-114" value="" style="shape=partialRectangle;collapsible=0;dropTarget=0;pointerEvents=0;fillColor=none;top=0;left=0;bottom=0;right=0;points=[[0,0.5],[1,0.5]];portConstraint=eastwest;labelBackgroundColor=none;fontColor=#FFFFFF;rounded=0;" parent="Siw3LnyoGnZJkl1sZXDq-110" vertex="1">
                    <mxGeometry y="90" width="210" height="30" as="geometry"/>
                </mxCell>
                <mxCell id="Siw3LnyoGnZJkl1sZXDq-115" value="" style="shape=partialRectangle;connectable=0;fillColor=none;top=0;left=0;bottom=0;right=0;editable=1;overflow=hidden;labelBackgroundColor=none;fontColor=#FFFFFF;rounded=0;" parent="Siw3LnyoGnZJkl1sZXDq-114" vertex="1">
                    <mxGeometry width="30" height="30" as="geometry">
                        <mxRectangle width="30" height="30" as="alternateBounds"/>
                    </mxGeometry>
                </mxCell>
                <mxCell id="Siw3LnyoGnZJkl1sZXDq-116" value="Message" style="shape=partialRectangle;connectable=0;fillColor=none;top=0;left=0;bottom=0;right=0;align=left;spacingLeft=6;overflow=hidden;labelBackgroundColor=none;fontColor=#FFFFFF;rounded=0;" parent="Siw3LnyoGnZJkl1sZXDq-114" vertex="1">
                    <mxGeometry x="30" width="180" height="30" as="geometry">
                        <mxRectangle width="180" height="30" as="alternateBounds"/>
                    </mxGeometry>
                </mxCell>
                <mxCell id="Siw3LnyoGnZJkl1sZXDq-117" value="" style="shape=partialRectangle;collapsible=0;dropTarget=0;pointerEvents=0;fillColor=none;top=0;left=0;bottom=0;right=0;points=[[0,0.5],[1,0.5]];portConstraint=eastwest;labelBackgroundColor=none;fontColor=#FFFFFF;rounded=0;" parent="Siw3LnyoGnZJkl1sZXDq-110" vertex="1">
                    <mxGeometry y="120" width="210" height="30" as="geometry"/>
                </mxCell>
                <mxCell id="Siw3LnyoGnZJkl1sZXDq-118" value="" style="shape=partialRectangle;connectable=0;fillColor=none;top=0;left=0;bottom=0;right=0;editable=1;overflow=hidden;labelBackgroundColor=none;fontColor=#FFFFFF;rounded=0;" parent="Siw3LnyoGnZJkl1sZXDq-117" vertex="1">
                    <mxGeometry width="30" height="30" as="geometry">
                        <mxRectangle width="30" height="30" as="alternateBounds"/>
                    </mxGeometry>
                </mxCell>
                <mxCell id="Siw3LnyoGnZJkl1sZXDq-119" value="TV Show Name" style="shape=partialRectangle;connectable=0;fillColor=none;top=0;left=0;bottom=0;right=0;align=left;spacingLeft=6;overflow=hidden;labelBackgroundColor=none;fontColor=#FFFFFF;rounded=0;" parent="Siw3LnyoGnZJkl1sZXDq-117" vertex="1">
                    <mxGeometry x="30" width="180" height="30" as="geometry">
                        <mxRectangle width="180" height="30" as="alternateBounds"/>
                    </mxGeometry>
                </mxCell>
                <mxCell id="Siw3LnyoGnZJkl1sZXDq-120" value="" style="shape=partialRectangle;collapsible=0;dropTarget=0;pointerEvents=0;fillColor=none;top=0;left=0;bottom=0;right=0;points=[[0,0.5],[1,0.5]];portConstraint=eastwest;labelBackgroundColor=none;fontColor=#FFFFFF;rounded=0;" parent="Siw3LnyoGnZJkl1sZXDq-110" vertex="1">
                    <mxGeometry y="150" width="210" height="30" as="geometry"/>
                </mxCell>
                <mxCell id="Siw3LnyoGnZJkl1sZXDq-121" value="" style="shape=partialRectangle;connectable=0;fillColor=none;top=0;left=0;bottom=0;right=0;editable=1;overflow=hidden;labelBackgroundColor=none;fontColor=#FFFFFF;rounded=0;" parent="Siw3LnyoGnZJkl1sZXDq-120" vertex="1">
                    <mxGeometry width="30" height="30" as="geometry">
                        <mxRectangle width="30" height="30" as="alternateBounds"/>
                    </mxGeometry>
                </mxCell>
                <mxCell id="Siw3LnyoGnZJkl1sZXDq-122" value="Comment Likes" style="shape=partialRectangle;connectable=0;fillColor=none;top=0;left=0;bottom=0;right=0;align=left;spacingLeft=6;overflow=hidden;labelBackgroundColor=none;fontColor=#FFFFFF;rounded=0;" parent="Siw3LnyoGnZJkl1sZXDq-120" vertex="1">
                    <mxGeometry x="30" width="180" height="30" as="geometry">
                        <mxRectangle width="180" height="30" as="alternateBounds"/>
                    </mxGeometry>
                </mxCell>
                <mxCell id="Siw3LnyoGnZJkl1sZXDq-126" value="" style="shape=partialRectangle;collapsible=0;dropTarget=0;pointerEvents=0;fillColor=none;top=0;left=0;bottom=0;right=0;points=[[0,0.5],[1,0.5]];portConstraint=eastwest;labelBackgroundColor=none;fontColor=#FFFFFF;rounded=0;" parent="Siw3LnyoGnZJkl1sZXDq-110" vertex="1">
                    <mxGeometry y="180" width="210" height="30" as="geometry"/>
                </mxCell>
                <mxCell id="Siw3LnyoGnZJkl1sZXDq-127" value="" style="shape=partialRectangle;connectable=0;fillColor=none;top=0;left=0;bottom=0;right=0;editable=1;overflow=hidden;labelBackgroundColor=none;fontColor=#FFFFFF;rounded=0;" parent="Siw3LnyoGnZJkl1sZXDq-126" vertex="1">
                    <mxGeometry width="30" height="30" as="geometry">
                        <mxRectangle width="30" height="30" as="alternateBounds"/>
                    </mxGeometry>
                </mxCell>
                <mxCell id="Siw3LnyoGnZJkl1sZXDq-128" value="Comment Dislikes" style="shape=partialRectangle;connectable=0;fillColor=none;top=0;left=0;bottom=0;right=0;align=left;spacingLeft=6;overflow=hidden;labelBackgroundColor=none;fontColor=#FFFFFF;rounded=0;" parent="Siw3LnyoGnZJkl1sZXDq-126" vertex="1">
                    <mxGeometry x="30" width="180" height="30" as="geometry">
                        <mxRectangle width="180" height="30" as="alternateBounds"/>
                    </mxGeometry>
                </mxCell>
                <mxCell id="Cl-LHQ4kc-49kZ4zkS2B-11" style="edgeStyle=orthogonalEdgeStyle;orthogonalLoop=1;jettySize=auto;html=1;exitX=0.5;exitY=0;exitDx=0;exitDy=0;entryX=0.5;entryY=1;entryDx=0;entryDy=0;startArrow=ERzeroToMany;startFill=1;labelBackgroundColor=default;fontColor=default;endArrow=ERmandOne;endFill=0;strokeColor=#FFFFFF;" parent="1" source="Siw3LnyoGnZJkl1sZXDq-152" target="Siw3LnyoGnZJkl1sZXDq-110" edge="1">
                    <mxGeometry relative="1" as="geometry"/>
                </mxCell>
                <mxCell id="Siw3LnyoGnZJkl1sZXDq-152" value="Replies" style="shape=table;startSize=30;container=1;collapsible=1;childLayout=tableLayout;fixedRows=1;rowLines=0;fontStyle=1;align=center;resizeLast=1;labelBackgroundColor=none;fontColor=#FFFFFF;fillColor=#000000;rounded=0;swimlaneFillColor=default;" parent="1" vertex="1">
                    <mxGeometry x="640" y="320" width="210" height="160" as="geometry"/>
                </mxCell>
                <mxCell id="Siw3LnyoGnZJkl1sZXDq-153" value="" style="shape=partialRectangle;collapsible=0;dropTarget=0;pointerEvents=0;fillColor=none;top=0;left=0;bottom=0;right=0;points=[[0,0.5],[1,0.5]];portConstraint=eastwest;labelBackgroundColor=none;fontColor=#FFFFFF;rounded=0;" parent="Siw3LnyoGnZJkl1sZXDq-152" vertex="1">
                    <mxGeometry y="30" width="210" height="30" as="geometry"/>
                </mxCell>
                <mxCell id="Siw3LnyoGnZJkl1sZXDq-154" value="PK" style="shape=partialRectangle;connectable=0;fillColor=none;top=0;left=0;bottom=0;right=0;fontStyle=1;overflow=hidden;labelBackgroundColor=none;fontColor=#FFFFFF;rounded=0;" parent="Siw3LnyoGnZJkl1sZXDq-153" vertex="1">
                    <mxGeometry width="60" height="30" as="geometry">
                        <mxRectangle width="60" height="30" as="alternateBounds"/>
                    </mxGeometry>
                </mxCell>
                <mxCell id="Siw3LnyoGnZJkl1sZXDq-155" value="ID" style="shape=partialRectangle;connectable=0;fillColor=none;top=0;left=0;bottom=0;right=0;align=left;spacingLeft=6;fontStyle=1;overflow=hidden;labelBackgroundColor=none;fontColor=#FFFFFF;strokeColor=default;rounded=0;" parent="Siw3LnyoGnZJkl1sZXDq-153" vertex="1">
                    <mxGeometry x="60" width="150" height="30" as="geometry">
                        <mxRectangle width="150" height="30" as="alternateBounds"/>
                    </mxGeometry>
                </mxCell>
                <mxCell id="Siw3LnyoGnZJkl1sZXDq-156" value="" style="shape=partialRectangle;collapsible=0;dropTarget=0;pointerEvents=0;fillColor=none;top=0;left=0;bottom=1;right=0;points=[[0,0.5],[1,0.5]];portConstraint=eastwest;labelBackgroundColor=none;fontColor=#FFFFFF;rounded=0;" parent="Siw3LnyoGnZJkl1sZXDq-152" vertex="1">
                    <mxGeometry y="60" width="210" height="30" as="geometry"/>
                </mxCell>
                <mxCell id="Siw3LnyoGnZJkl1sZXDq-157" value="PF" style="shape=partialRectangle;connectable=0;fillColor=none;top=0;left=0;bottom=0;right=0;fontStyle=1;overflow=hidden;labelBackgroundColor=none;fontColor=#FFFFFF;rounded=0;" parent="Siw3LnyoGnZJkl1sZXDq-156" vertex="1">
                    <mxGeometry width="60" height="30" as="geometry">
                        <mxRectangle width="60" height="30" as="alternateBounds"/>
                    </mxGeometry>
                </mxCell>
                <mxCell id="Siw3LnyoGnZJkl1sZXDq-158" value="Comment ID" style="shape=partialRectangle;connectable=0;fillColor=none;top=0;left=0;bottom=0;right=0;align=left;spacingLeft=6;fontStyle=1;overflow=hidden;labelBackgroundColor=none;fontColor=#FFFFFF;strokeColor=default;rounded=0;" parent="Siw3LnyoGnZJkl1sZXDq-156" vertex="1">
                    <mxGeometry x="60" width="150" height="30" as="geometry">
                        <mxRectangle width="150" height="30" as="alternateBounds"/>
                    </mxGeometry>
                </mxCell>
                <mxCell id="Siw3LnyoGnZJkl1sZXDq-159" value="" style="shape=partialRectangle;collapsible=0;dropTarget=0;pointerEvents=0;fillColor=none;top=0;left=0;bottom=0;right=0;points=[[0,0.5],[1,0.5]];portConstraint=eastwest;labelBackgroundColor=none;fontColor=#FFFFFF;rounded=0;" parent="Siw3LnyoGnZJkl1sZXDq-152" vertex="1">
                    <mxGeometry y="90" width="210" height="30" as="geometry"/>
                </mxCell>
                <mxCell id="Siw3LnyoGnZJkl1sZXDq-160" value="" style="shape=partialRectangle;connectable=0;fillColor=none;top=0;left=0;bottom=0;right=0;editable=1;overflow=hidden;labelBackgroundColor=none;fontColor=#FFFFFF;rounded=0;" parent="Siw3LnyoGnZJkl1sZXDq-159" vertex="1">
                    <mxGeometry width="60" height="30" as="geometry">
                        <mxRectangle width="60" height="30" as="alternateBounds"/>
                    </mxGeometry>
                </mxCell>
                <mxCell id="Siw3LnyoGnZJkl1sZXDq-161" value="Username" style="shape=partialRectangle;connectable=0;fillColor=none;top=0;left=0;bottom=0;right=0;align=left;spacingLeft=6;overflow=hidden;labelBackgroundColor=none;fontColor=#FFFFFF;rounded=0;" parent="Siw3LnyoGnZJkl1sZXDq-159" vertex="1">
                    <mxGeometry x="60" width="150" height="30" as="geometry">
                        <mxRectangle width="150" height="30" as="alternateBounds"/>
                    </mxGeometry>
                </mxCell>
                <mxCell id="Siw3LnyoGnZJkl1sZXDq-162" value="" style="shape=partialRectangle;collapsible=0;dropTarget=0;pointerEvents=0;fillColor=none;top=0;left=0;bottom=0;right=0;points=[[0,0.5],[1,0.5]];portConstraint=eastwest;labelBackgroundColor=none;fontColor=#FFFFFF;rounded=0;" parent="Siw3LnyoGnZJkl1sZXDq-152" vertex="1">
                    <mxGeometry y="120" width="210" height="30" as="geometry"/>
                </mxCell>
                <mxCell id="Siw3LnyoGnZJkl1sZXDq-163" value="" style="shape=partialRectangle;connectable=0;fillColor=none;top=0;left=0;bottom=0;right=0;editable=1;overflow=hidden;labelBackgroundColor=none;fontColor=#FFFFFF;rounded=0;" parent="Siw3LnyoGnZJkl1sZXDq-162" vertex="1">
                    <mxGeometry width="60" height="30" as="geometry">
                        <mxRectangle width="60" height="30" as="alternateBounds"/>
                    </mxGeometry>
                </mxCell>
                <mxCell id="Siw3LnyoGnZJkl1sZXDq-164" value="Message" style="shape=partialRectangle;connectable=0;fillColor=none;top=0;left=0;bottom=0;right=0;align=left;spacingLeft=6;overflow=hidden;labelBackgroundColor=none;fontColor=#FFFFFF;rounded=0;" parent="Siw3LnyoGnZJkl1sZXDq-162" vertex="1">
                    <mxGeometry x="60" width="150" height="30" as="geometry">
                        <mxRectangle width="150" height="30" as="alternateBounds"/>
                    </mxGeometry>
                </mxCell>
                <mxCell id="Siw3LnyoGnZJkl1sZXDq-167" value="Watched" style="shape=table;startSize=30;container=1;collapsible=1;childLayout=tableLayout;fixedRows=1;rowLines=0;fontStyle=1;align=center;resizeLast=1;labelBackgroundColor=none;fontColor=#FFFFFF;fillColor=#000000;rounded=0;swimlaneFillColor=default;" parent="1" vertex="1">
                    <mxGeometry width="200" height="200" as="geometry"/>
                </mxCell>
                <mxCell id="Siw3LnyoGnZJkl1sZXDq-168" value="" style="shape=partialRectangle;collapsible=0;dropTarget=0;pointerEvents=0;fillColor=none;top=0;left=0;bottom=0;right=0;points=[[0,0.5],[1,0.5]];portConstraint=eastwest;labelBackgroundColor=none;fontColor=#FFFFFF;rounded=0;" parent="Siw3LnyoGnZJkl1sZXDq-167" vertex="1">
                    <mxGeometry y="30" width="200" height="30" as="geometry"/>
                </mxCell>
                <mxCell id="Siw3LnyoGnZJkl1sZXDq-169" value="PK" style="shape=partialRectangle;connectable=0;fillColor=none;top=0;left=0;bottom=0;right=0;fontStyle=1;overflow=hidden;labelBackgroundColor=none;fontColor=#FFFFFF;rounded=0;" parent="Siw3LnyoGnZJkl1sZXDq-168" vertex="1">
                    <mxGeometry width="59.75" height="30" as="geometry">
                        <mxRectangle width="59.75" height="30" as="alternateBounds"/>
                    </mxGeometry>
                </mxCell>
                <mxCell id="Siw3LnyoGnZJkl1sZXDq-170" value="ID" style="shape=partialRectangle;connectable=0;fillColor=none;top=0;left=0;bottom=0;right=0;align=left;spacingLeft=6;fontStyle=1;overflow=hidden;labelBackgroundColor=none;fontColor=#FFFFFF;strokeColor=default;rounded=0;" parent="Siw3LnyoGnZJkl1sZXDq-168" vertex="1">
                    <mxGeometry x="59.75" width="140.25" height="30" as="geometry">
                        <mxRectangle width="140.25" height="30" as="alternateBounds"/>
                    </mxGeometry>
                </mxCell>
                <mxCell id="Siw3LnyoGnZJkl1sZXDq-171" value="" style="shape=partialRectangle;collapsible=0;dropTarget=0;pointerEvents=0;fillColor=none;top=0;left=0;bottom=1;right=0;points=[[0,0.5],[1,0.5]];portConstraint=eastwest;labelBackgroundColor=none;fontColor=#FFFFFF;rounded=0;" parent="Siw3LnyoGnZJkl1sZXDq-167" vertex="1">
                    <mxGeometry y="60" width="200" height="30" as="geometry"/>
                </mxCell>
                <mxCell id="Siw3LnyoGnZJkl1sZXDq-172" value="PF" style="shape=partialRectangle;connectable=0;fillColor=none;top=0;left=0;bottom=0;right=0;fontStyle=1;overflow=hidden;labelBackgroundColor=none;fontColor=#FFFFFF;rounded=0;" parent="Siw3LnyoGnZJkl1sZXDq-171" vertex="1">
                    <mxGeometry width="59.75" height="30" as="geometry">
                        <mxRectangle width="59.75" height="30" as="alternateBounds"/>
                    </mxGeometry>
                </mxCell>
                <mxCell id="Siw3LnyoGnZJkl1sZXDq-173" value="User ID" style="shape=partialRectangle;connectable=0;fillColor=none;top=0;left=0;bottom=0;right=0;align=left;spacingLeft=6;fontStyle=1;overflow=hidden;labelBackgroundColor=none;fontColor=#FFFFFF;strokeColor=default;rounded=0;" parent="Siw3LnyoGnZJkl1sZXDq-171" vertex="1">
                    <mxGeometry x="59.75" width="140.25" height="30" as="geometry">
                        <mxRectangle width="140.25" height="30" as="alternateBounds"/>
                    </mxGeometry>
                </mxCell>
                <mxCell id="Siw3LnyoGnZJkl1sZXDq-174" value="" style="shape=partialRectangle;collapsible=0;dropTarget=0;pointerEvents=0;fillColor=none;top=0;left=0;bottom=0;right=0;points=[[0,0.5],[1,0.5]];portConstraint=eastwest;labelBackgroundColor=none;fontColor=#FFFFFF;rounded=0;" parent="Siw3LnyoGnZJkl1sZXDq-167" vertex="1">
                    <mxGeometry y="90" width="200" height="30" as="geometry"/>
                </mxCell>
                <mxCell id="Siw3LnyoGnZJkl1sZXDq-175" value="" style="shape=partialRectangle;connectable=0;fillColor=none;top=0;left=0;bottom=0;right=0;editable=1;overflow=hidden;labelBackgroundColor=none;fontColor=#FFFFFF;rounded=0;" parent="Siw3LnyoGnZJkl1sZXDq-174" vertex="1">
                    <mxGeometry width="59.75" height="30" as="geometry">
                        <mxRectangle width="59.75" height="30" as="alternateBounds"/>
                    </mxGeometry>
                </mxCell>
                <mxCell id="Siw3LnyoGnZJkl1sZXDq-176" value="TV Show Name" style="shape=partialRectangle;connectable=0;fillColor=none;top=0;left=0;bottom=0;right=0;align=left;spacingLeft=6;overflow=hidden;labelBackgroundColor=none;fontColor=#FFFFFF;rounded=0;" parent="Siw3LnyoGnZJkl1sZXDq-174" vertex="1">
                    <mxGeometry x="59.75" width="140.25" height="30" as="geometry">
                        <mxRectangle width="140.25" height="30" as="alternateBounds"/>
                    </mxGeometry>
                </mxCell>
                <mxCell id="Siw3LnyoGnZJkl1sZXDq-177" value="" style="shape=partialRectangle;collapsible=0;dropTarget=0;pointerEvents=0;fillColor=none;top=0;left=0;bottom=0;right=0;points=[[0,0.5],[1,0.5]];portConstraint=eastwest;labelBackgroundColor=none;fontColor=#FFFFFF;rounded=0;" parent="Siw3LnyoGnZJkl1sZXDq-167" vertex="1">
                    <mxGeometry y="120" width="200" height="30" as="geometry"/>
                </mxCell>
                <mxCell id="Siw3LnyoGnZJkl1sZXDq-178" value="" style="shape=partialRectangle;connectable=0;fillColor=none;top=0;left=0;bottom=0;right=0;editable=1;overflow=hidden;labelBackgroundColor=none;fontColor=#FFFFFF;rounded=0;" parent="Siw3LnyoGnZJkl1sZXDq-177" vertex="1">
                    <mxGeometry width="59.75" height="30" as="geometry">
                        <mxRectangle width="59.75" height="30" as="alternateBounds"/>
                    </mxGeometry>
                </mxCell>
                <mxCell id="Siw3LnyoGnZJkl1sZXDq-179" value="User Liked (bool)" style="shape=partialRectangle;connectable=0;fillColor=none;top=0;left=0;bottom=0;right=0;align=left;spacingLeft=6;overflow=hidden;labelBackgroundColor=none;fontColor=#FFFFFF;rounded=0;" parent="Siw3LnyoGnZJkl1sZXDq-177" vertex="1">
                    <mxGeometry x="59.75" width="140.25" height="30" as="geometry">
                        <mxRectangle width="140.25" height="30" as="alternateBounds"/>
                    </mxGeometry>
                </mxCell>
                <mxCell id="Siw3LnyoGnZJkl1sZXDq-180" value="" style="shape=partialRectangle;collapsible=0;dropTarget=0;pointerEvents=0;fillColor=none;top=0;left=0;bottom=0;right=0;points=[[0,0.5],[1,0.5]];portConstraint=eastwest;labelBackgroundColor=none;fontColor=#FFFFFF;rounded=0;" parent="Siw3LnyoGnZJkl1sZXDq-167" vertex="1">
                    <mxGeometry y="150" width="200" height="30" as="geometry"/>
                </mxCell>
                <mxCell id="Siw3LnyoGnZJkl1sZXDq-181" value="" style="shape=partialRectangle;connectable=0;fillColor=none;top=0;left=0;bottom=0;right=0;editable=1;overflow=hidden;labelBackgroundColor=none;fontColor=#FFFFFF;rounded=0;" parent="Siw3LnyoGnZJkl1sZXDq-180" vertex="1">
                    <mxGeometry width="59.75" height="30" as="geometry">
                        <mxRectangle width="59.75" height="30" as="alternateBounds"/>
                    </mxGeometry>
                </mxCell>
                <mxCell id="Siw3LnyoGnZJkl1sZXDq-182" value="isFavorite (bool)" style="shape=partialRectangle;connectable=0;fillColor=none;top=0;left=0;bottom=0;right=0;align=left;spacingLeft=6;overflow=hidden;labelBackgroundColor=none;fontColor=#FFFFFF;rounded=0;" parent="Siw3LnyoGnZJkl1sZXDq-180" vertex="1">
                    <mxGeometry x="59.75" width="140.25" height="30" as="geometry">
                        <mxRectangle width="140.25" height="30" as="alternateBounds"/>
                    </mxGeometry>
                </mxCell>
                <mxCell id="Cl-LHQ4kc-49kZ4zkS2B-9" style="edgeStyle=orthogonalEdgeStyle;orthogonalLoop=1;jettySize=auto;html=1;exitX=1;exitY=0.5;exitDx=0;exitDy=0;labelBackgroundColor=default;fontColor=default;startArrow=ERzeroToMany;startFill=1;endArrow=ERmandOne;endFill=0;strokeColor=#FFFFFF;" parent="1" source="Siw3LnyoGnZJkl1sZXDq-168" target="Siw3LnyoGnZJkl1sZXDq-95" edge="1">
                    <mxGeometry relative="1" as="geometry"/>
                </mxCell>
                <mxCell id="Cl-LHQ4kc-49kZ4zkS2B-10" style="edgeStyle=orthogonalEdgeStyle;orthogonalLoop=1;jettySize=auto;html=1;exitX=1;exitY=0.5;exitDx=0;exitDy=0;entryX=0.5;entryY=1;entryDx=0;entryDy=0;labelBackgroundColor=default;fontColor=default;startArrow=ERzeroToMany;startFill=1;endArrow=ERmandOne;endFill=0;strokeColor=#FFFFFF;" parent="1" source="Siw3LnyoGnZJkl1sZXDq-57" target="Siw3LnyoGnZJkl1sZXDq-95" edge="1">
                    <mxGeometry relative="1" as="geometry"/>
                </mxCell>
            </root>
        </mxGraphModel>
    </diagram>
</mxfile>